<svg width="179" height="57" viewBox="0 0 179 57" fill="none" xmlns="http://www.w3.org/2000/svg">
<g clip-path="url(#clip0_5_180)">
<path d="M29.6296 11.0446C28.295 9.20602 28.7036 6.6337 30.5421 5.29912C32.3807 3.96455 34.953 4.37311 36.2876 6.21167L52.4714 28.5072L36.2876 50.8026C34.953 52.6412 32.3807 53.0497 30.5421 51.7152C28.7036 50.3806 28.295 47.8083 29.6296 45.9697L42.3053 28.5072L29.6296 11.0446Z" fill="#009DB9"/>
<path d="M44.1563 11.0446C42.8218 9.20602 43.2303 6.6337 45.0689 5.29912C46.9075 3.96455 49.4798 4.37311 50.8144 6.21167L66.9982 28.5072L50.8144 50.8026C49.4798 52.6412 46.9075 53.0497 45.0689 51.7152C43.2304 50.3806 42.8218 47.8083 44.1564 45.9697L56.8321 28.5072L44.1563 11.0446Z" fill="#EA0032"/>
<path d="M1.69741 5.28487C3.53597 3.9503 6.1083 4.35886 7.44287 6.19742L36.3024 45.9555C37.637 47.794 37.2285 50.3664 35.3899 51.7009C33.5513 53.0355 30.979 52.6269 29.6444 50.7884L0.784867 11.0303C-0.549703 9.19177 -0.141142 6.61944 1.69741 5.28487Z" fill="white"/>
<path d="M16.1499 5.29912C17.9884 3.96455 20.5608 4.37311 21.8953 6.21167L50.7549 45.9697C52.0895 47.8083 51.6809 50.3806 49.8424 51.7152C48.0038 53.0497 45.4315 52.6412 44.0969 50.8026L15.2373 11.0446C13.9028 9.20602 14.3113 6.6337 16.1499 5.29912Z" fill="white"/>
</g>
<path d="M110.192 19.4581H94.3687V47H85.5626V12.8536H110.192V19.4581ZM138.881 16.798C140.409 18.2809 141.579 20.0773 142.389 22.1871C143.215 24.2969 143.628 26.7124 143.628 29.4338C143.628 32.3538 143.177 34.9834 142.275 37.3225C141.373 39.6463 140.134 41.5497 138.559 43.0327C136.985 44.5157 135.089 45.6623 132.872 46.4726C130.671 47.2675 128.209 47.665 125.488 47.665C124.036 47.665 122.683 47.5657 121.429 47.3669C120.191 47.1835 119.075 46.9541 118.081 46.6789C117.026 46.3885 116.07 46.0903 115.214 45.7846C114.358 45.4635 113.708 45.2113 113.265 45.0278V37.2996H114.113C114.572 37.6818 115.13 38.1099 115.788 38.5838C116.445 39.0424 117.164 39.4629 117.943 39.8451C118.876 40.2884 119.87 40.663 120.924 40.9688C121.979 41.2592 123.233 41.4045 124.685 41.4045C125.71 41.4045 126.803 41.2669 127.965 40.9917C129.127 40.7012 130.166 40.2196 131.083 39.547C132.047 38.859 132.872 37.9417 133.56 36.7951C134.263 35.6484 134.707 34.1884 134.89 32.415H119.686V25.9022H134.684C134.439 24.5262 134.004 23.3719 133.377 22.4394C132.75 21.5068 132.001 20.7424 131.129 20.1461C130.258 19.5499 129.302 19.1218 128.263 18.8619C127.238 18.5867 126.214 18.4491 125.19 18.4491C123.921 18.4491 122.744 18.602 121.658 18.9078C120.588 19.1982 119.579 19.5728 118.631 20.0315C117.775 20.4595 117.011 20.9182 116.338 21.4074C115.681 21.8966 115.13 22.3094 114.687 22.6457H113.724V14.8487C114.564 14.4818 115.352 14.1684 116.086 13.9085C116.82 13.6333 117.767 13.3428 118.929 13.0371C119.862 12.7924 120.963 12.5937 122.232 12.4408C123.501 12.2726 124.8 12.1886 126.13 12.1886C128.76 12.1886 131.152 12.5784 133.308 13.3581C135.464 14.1378 137.321 15.2844 138.881 16.798ZM177.086 19.4581H166.422V47H157.616V19.4581H146.953V12.8536H177.086V19.4581Z" fill="white"/>
<defs>
<clipPath id="clip0_5_180">
<rect width="66.9982" height="48" fill="white" transform="translate(0 4.50001)"/>
</clipPath>
</defs>
</svg>
